{"title":"Nannbenda (2015) TC Rip x264 AAC 700MB","uid":11799980,"size":734199076,"categoryP":"video","categoryS":"movies","magnet":"?xt=urn:btih:4e7a3cd9acc493d739746a01e5cfd4fab636f1bf&amp;dn=Nannbenda+%282015%29+TC+Rip+x264+AAC+700MB&amp;tr=udp%3A%2F%2Ftracker.openbittorrent.com%3A80&amp;tr=udp%3A%2F%2Fopen.demonii.com%3A1337&amp;tr=udp%3A%2F%2Ftracker.coppersurfer.tk%3A6969&amp;tr=udp%3A%2F%2Fexodus.desync.com%3A6969","seeders":0,"leechers":1,"uploader":"TeamXDN","files":1,"time":1428346180,"description":"Nannbenda (2015) TC Rip x264 AAC 700MB\n\nFormat                                   : MPEG-4\nFormat profile                           : Base Media\nCodec ID                                 : isom\nFile size                                : 700 MiB\nDuration                                 : 2h 25mn\nOverall bit rate mode                    : Variable\nOverall bit rate                         : 674 Kbps\nEncoded date                             : UTC 2015-04-06 16:07:02\nTagged date                              : UTC 2015-04-06 16:07:02\n\nVideo\nID                                       : 1\nFormat                                   : AVC\nFormat/Info                              : Advanced Video Codec\nFormat profile                           : &lt;a class=&quot;__cf_email__&quot; href=&quot;/cdn-cgi/l/email-protection&quot; data-cfemail=&quot;d69ebfb1be969ae4f8e7&quot;&gt;[email&amp;#160;protected]&lt;/a&gt;&lt;script cf-hash='f9e31' type=&quot;text/javascript&quot;&gt;\n/* &lt;![CDATA[ */!function(){try{var t=&quot;currentScript&quot;in document?document.currentScript:function(){for(var t=document.getElementsByTagName(&quot;script&quot;),e=t.length;e--;)if(t[e].getAttribute(&quot;cf-hash&quot;))return t[e]}();if(t&amp;&amp;t.previousSibling){var e,r,n,i,c=t.previousSibling,a=c.getAttribute(&quot;data-cfemail&quot;);if(a){for(e=&quot;&quot;,r=parseInt(a.substr(0,2),16),n=2;a.length-n;n+=2)i=parseInt(a.substr(n,2),16)^r,e+=String.fromCharCode(i);e=document.createTextNode(e),c.parentNode.replaceChild(e,c)}}}catch(u){}}();/* ]]&gt; */&lt;/script&gt;\nFormat settings, CABAC                   : Yes\nFormat settings, ReFrames                : 4 frames\nCodec ID                                 : avc1\nCodec ID/Info                            : Advanced Video Coding\nDuration                                 : 2h 25mn\nBit rate                                 : 597 Kbps\nMaximum bit rate                         : 1 838 Kbps\nWidth                                    : 608 pixels\nHeight                                   : 256 pixels\nDisplay aspect ratio                     : 2.40:1\nFrame rate mode                          : Constant\nFrame rate                               : 23.976 fps\nColor space                              : YUV\nChroma subsampling                       : 4:2:0\nBit depth                                : 8 bits\nScan type                                : Progressive\nBits/(Pixel*Frame)                       : 0.160\nStream size                              : 620 MiB (89%)\nWriting library                          : x264 core 146 r2538 121396c\nEncoded date                             : UTC 2015-04-05 20:01:35\nTagged date                              : UTC 2015-04-06 16:09:12\n\nAudio\nID                                       : 2\nFormat                                   : AAC\nFormat/Info                              : Advanced Audio Codec\nFormat profile                           : HE-AAC / LC\nCodec ID                                 : 40\nDuration                                 : 2h 25mn\nBit rate mode                            : Variable\nBit rate                                 : 74.0 Kbps\nMaximum bit rate                         : 92.4 Kbps\nChannel(s)                               : 2 channels\nChannel positions                        : Front: L R\nSampling rate                            : 24.0 KHz / 12.0 KHz\nCompression mode                         : Lossy\nStream size                              : 76.9 MiB (11%)\nEncoded date                             : UTC 2015-04-06 15:51:09\nTagged date                              : UTC 2015-04-06 16:09:12","torrent":{"xt":"urn:btih:4e7a3cd9acc493d739746a01e5cfd4fab636f1bf","amp;dn":"Nannbenda+%282015%29+TC+Rip+x264+AAC+700MB","amp;tr":["udp%3A%2F%2Ftracker.openbittorrent.com%3A80","udp%3A%2F%2Fopen.demonii.com%3A1337","udp%3A%2F%2Ftracker.coppersurfer.tk%3A6969","udp%3A%2F%2Fexodus.desync.com%3A6969"],"infoHash":"4e7a3cd9acc493d739746a01e5cfd4fab636f1bf","infoHashBuffer":{"type":"Buffer","data":[78,122,60,217,172,196,147,215,57,116,106,1,229,207,212,250,182,54,241,191]},"announce":[],"urlList":[]}}